{"title":"[wakaRiP]Nekomonogatari (Kuro) [1-4] VOSTFR HD","uid":10491320,"size":1440138850,"categoryP":"video","categoryS":"hd___tv_shows","magnet":"?xt=urn:btih:254af156b4ebb991c438bf9b7a3f58f98acc8398&amp;dn=%5BwakaRiP%5DNekomonogatari+%28Kuro%29+%5B1-4%5D+VOSTFR+HD&amp;tr=udp%3A%2F%2Ftracker.openbittorrent.com%3A80&amp;tr=udp%3A%2F%2Fopen.demonii.com%3A1337&amp;tr=udp%3A%2F%2Ftracker.coppersurfer.tk%3A6969&amp;tr=udp%3A%2F%2Fexodus.desync.com%3A6969","seeders":8,"leechers":0,"uploader":"wakaRIP","files":-1,"time":1404552254,"description":"&quot;Don't judge me based on the same story and laugh.&quot;\n\n18%...\n\n\nGeneral\nFormat                                   : MPEG-4\nFormat profile                           : Base Media\nCodec ID                                 : isom\nFile size                                : 345 MiB\nDuration                                 : 24mn 9s\nOverall bit rate                         : 1 999 Kbps\nWriting application                      : Lavf54.2.100\n\nVideo\nID                                       : 1\nFormat                                   : AVC\nFormat/Info                              : Advanced Video Codec\nFormat profile                           : &lt;a class=&quot;__cf_email__&quot; href=&quot;/cdn-cgi/l/email-protection&quot; data-cfemail=&quot;145c7d737c5458203a25&quot;&gt;[email&amp;#160;protected]&lt;/a&gt;&lt;script cf-hash='f9e31' type=&quot;text/javascript&quot;&gt;\n/* &lt;![CDATA[ */!function(){try{var t=&quot;currentScript&quot;in document?document.currentScript:function(){for(var t=document.getElementsByTagName(&quot;script&quot;),e=t.length;e--;)if(t[e].getAttribute(&quot;cf-hash&quot;))return t[e]}();if(t&amp;&amp;t.previousSibling){var e,r,n,i,c=t.previousSibling,a=c.getAttribute(&quot;data-cfemail&quot;);if(a){for(e=&quot;&quot;,r=parseInt(a.substr(0,2),16),n=2;a.length-n;n+=2)i=parseInt(a.substr(n,2),16)^r,e+=String.fromCharCode(i);e=document.createTextNode(e),c.parentNode.replaceChild(e,c)}}}catch(u){}}();/* ]]&gt; */&lt;/script&gt;\nFormat settings, CABAC                   : Yes\nFormat settings, ReFrames                : 9 frames\nCodec ID                                 : avc1\nCodec ID/Info                            : Advanced Video Coding\nDuration                                 : 24mn 9s\nBit rate                                 : 1 800 Kbps\nWidth                                    : 1 280 pixels\nHeight                                   : 720 pixels\nDisplay aspect ratio                     : 16:9\nFrame rate mode                          : Variable\nFrame rate                               : 23.976 fps\nMinimum frame rate                       : 23.810 fps\nMaximum frame rate                       : 24.390 fps\nColor space                              : YUV\nChroma subsampling                       : 4:2:0\nBit depth                                : 8 bits\nScan type                                : Progressive\nSource                                   : wakanim.tv\nBits/(Pixel*Frame)                       : 0.081\nStream size                              : 311 MiB (90%)\nWriting library                          : x264 core 129 r2230 1cffe9f\n\nAudio\nID                                       : 2\nFormat                                   : AAC\nFormat/Info                              : Advanced Audio Codec\nFormat profile                           : LC\nCodec ID                                 : 40\nDuration                                 : 24mn 9s\nBit rate mode                            : Constant\nBit rate                                 : 192 Kbps\nChannel count                            : 2 channels\nChannel positions                        : Front: L R\nSampling rate                            : 48.0 KHz\nCompression mode                         : Lossy\nStream size                              : 32.6 MiB (9%)","torrent":{"xt":"urn:btih:254af156b4ebb991c438bf9b7a3f58f98acc8398","amp;dn":"%5BwakaRiP%5DNekomonogatari+%28Kuro%29+%5B1-4%5D+VOSTFR+HD","amp;tr":["udp%3A%2F%2Ftracker.openbittorrent.com%3A80","udp%3A%2F%2Fopen.demonii.com%3A1337","udp%3A%2F%2Ftracker.coppersurfer.tk%3A6969","udp%3A%2F%2Fexodus.desync.com%3A6969"],"infoHash":"254af156b4ebb991c438bf9b7a3f58f98acc8398","infoHashBuffer":{"type":"Buffer","data":[37,74,241,86,180,235,185,145,196,56,191,155,122,63,88,249,138,204,131,152]},"announce":[],"urlList":[]}}